<svg width="24" height="24" viewBox="0 0 24 24" fill="none" xmlns="http://www.w3.org/2000/svg">
<path d="M15.8452 1.58017C15.8373 1.75424 15.8212 1.96276 15.7808 2.19247C15.6624 2.86375 15.3682 3.69479 14.6694 4.39364C13.9464 5.11661 13.2635 5.40065 12.7817 5.51083C12.6553 5.53973 12.5414 5.55574 12.4429 5.56552C12.4492 5.3954 12.4644 5.1853 12.5063 4.95126C12.6184 4.32679 12.8959 3.55113 13.5532 2.89364C14.2388 2.20809 14.9518 1.85913 15.4878 1.68173C15.6185 1.63847 15.7387 1.60541 15.8452 1.58017Z" fill="white" stroke="white"/>
<path d="M12.1245 7.33961C11.0188 7.33205 10.3396 6.37735 8.4566 6.37735C6.76225 6.37735 5.06373 7.47053 4.34151 8.52829C3.62264 9.58112 3 10.7358 3 13.0792C3 15.4226 4.12832 19.4528 6.90285 22.1811C7.378 22.6483 8.00698 22.9996 8.72454 23.0213C10.0151 23.0604 10.8076 22.0943 12.4377 22.0943C14.0679 22.0943 14.5585 23.0213 16.0302 23.0213C16.6994 23.0213 17.4626 22.7165 18.2038 21.9283C19.1547 20.917 20.3347 18.9909 20.9358 17.1434C20.9358 17.1434 17.9258 15.9809 17.9622 12.6302C17.9924 9.85282 20.3509 8.48677 20.3509 8.48677C20.3509 8.48677 18.9735 6.29054 16.0453 6.29054C14.0226 6.30567 13.1169 7.34641 12.1245 7.33961Z" fill="white"/>
</svg>
