<svg width="22" height="22" viewBox="0 0 22 22" fill="none" xmlns="http://www.w3.org/2000/svg">
<path d="M20.1668 6.92084C20.1668 7.52584 19.6718 8.02083 19.0668 8.02083H2.9335C2.3285 8.02083 1.8335 7.52584 1.8335 6.92084V6.91167C1.8335 4.8125 3.52933 3.11667 5.6285 3.11667H16.3627C18.4618 3.11667 20.1668 4.82167 20.1668 6.92084Z" fill="#1A1E25"/>
<path d="M1.8335 10.4958V15.0883C1.8335 17.1875 3.52933 18.8833 5.6285 18.8833H16.3627C18.4618 18.8833 20.1668 17.1783 20.1668 15.0792V10.4958C20.1668 9.89083 19.6718 9.39583 19.0668 9.39583H2.9335C2.3285 9.39583 1.8335 9.89083 1.8335 10.4958ZM7.3335 15.8125H5.50016C5.12433 15.8125 4.81266 15.5008 4.81266 15.125C4.81266 14.7492 5.12433 14.4375 5.50016 14.4375H7.3335C7.70933 14.4375 8.021 14.7492 8.021 15.125C8.021 15.5008 7.70933 15.8125 7.3335 15.8125ZM13.2918 15.8125H9.62516C9.24933 15.8125 8.93766 15.5008 8.93766 15.125C8.93766 14.7492 9.24933 14.4375 9.62516 14.4375H13.2918C13.6677 14.4375 13.9793 14.7492 13.9793 15.125C13.9793 15.5008 13.6677 15.8125 13.2918 15.8125Z" fill="#1A1E25"/>
</svg>
