<svg width="22" height="22" viewBox="0 0 22 22" fill="none" xmlns="http://www.w3.org/2000/svg">
<path d="M18.4252 8.45166C16.766 8.45166 16.0877 7.27833 16.9127 5.83916C17.3893 5.005 17.1052 3.94166 16.271 3.465L14.6852 2.5575C13.961 2.12666 13.026 2.38333 12.5952 3.1075L12.4943 3.28166C11.6693 4.72083 10.3127 4.72083 9.4785 3.28166L9.37766 3.1075C8.96516 2.38333 8.03016 2.12666 7.306 2.5575L5.72016 3.465C4.886 3.94166 4.60183 5.01416 5.0785 5.84833C5.91266 7.27833 5.23433 8.45166 3.57516 8.45166C2.62183 8.45166 1.8335 9.23083 1.8335 10.1933V11.8067C1.8335 12.76 2.61266 13.5483 3.57516 13.5483C5.23433 13.5483 5.91266 14.7217 5.0785 16.1608C4.60183 16.995 4.886 18.0583 5.72016 18.535L7.306 19.4425C8.03016 19.8733 8.96516 19.6167 9.396 18.8925L9.49683 18.7183C10.3218 17.2792 11.6785 17.2792 12.5127 18.7183L12.6135 18.8925C13.0443 19.6167 13.9793 19.8733 14.7035 19.4425L16.2893 18.535C17.1235 18.0583 17.4077 16.9858 16.931 16.1608C16.0968 14.7217 16.7752 13.5483 18.4343 13.5483C19.3877 13.5483 20.176 12.7692 20.176 11.8067V10.1933C20.1668 9.24 19.3877 8.45166 18.4252 8.45166ZM11.0002 13.9792C9.35933 13.9792 8.021 12.6408 8.021 11C8.021 9.35916 9.35933 8.02083 11.0002 8.02083C12.641 8.02083 13.9793 9.35916 13.9793 11C13.9793 12.6408 12.641 13.9792 11.0002 13.9792Z" fill="#292D32"/>
</svg>
