<svg width="22" height="22" viewBox="0 0 22 22" fill="none" xmlns="http://www.w3.org/2000/svg">
<path d="M15.5835 2.2275H6.41683C3.66683 2.2275 1.8335 4.06083 1.8335 6.81083V12.3108C1.8335 15.0608 3.66683 16.8942 6.41683 16.8942V18.8467C6.41683 19.58 7.23266 20.02 7.83766 19.6075L11.9168 16.8942H15.5835C18.3335 16.8942 20.1668 15.0608 20.1668 12.3108V6.81083C20.1668 4.06083 18.3335 2.2275 15.5835 2.2275ZM11.0002 13.3833C10.6152 13.3833 10.3127 13.0717 10.3127 12.6958C10.3127 12.32 10.6152 12.0083 11.0002 12.0083C11.3852 12.0083 11.6877 12.32 11.6877 12.6958C11.6877 13.0717 11.3852 13.3833 11.0002 13.3833ZM12.1552 9.57917C11.7977 9.8175 11.6877 9.97333 11.6877 10.23V10.4225C11.6877 10.7983 11.376 11.11 11.0002 11.11C10.6243 11.11 10.3127 10.7983 10.3127 10.4225V10.23C10.3127 9.16667 11.0918 8.64417 11.3852 8.4425C11.7243 8.21333 11.8343 8.0575 11.8343 7.81917C11.8343 7.36083 11.4585 6.985 11.0002 6.985C10.5418 6.985 10.166 7.36083 10.166 7.81917C10.166 8.195 9.85433 8.50667 9.4785 8.50667C9.10266 8.50667 8.791 8.195 8.791 7.81917C8.791 6.6 9.781 5.61 11.0002 5.61C12.2193 5.61 13.2093 6.6 13.2093 7.81917C13.2093 8.86417 12.4393 9.38667 12.1552 9.57917Z" fill="#1A1E25"/>
</svg>
